<svg width="150" height="75" xmlns="http://www.w3.org/2000/svg">
 <title>Bisect</title>
 <!-- inorg.org (c) 2013 - http://svg-edit.googlecode.com/ -->
 <g>
  <title>Bisect</title>
  <circle stroke-linejoin="round" id="svg_4" fill="#333333" stroke="#333333" stroke-width="5" cx="112.071369" cy="37.5" r="33.678635"/>
  <circle fill="#333333" stroke="#333333" stroke-width="5" cx="37.5" cy="37.5" r="33.67863" id="svg_1"/>
  <path fill="#ffffff" stroke-width="5" stroke-dasharray="null" stroke-linejoin="round" d="m50.86554,62.681622l6.506409,-5.43771l6.503052,-5.438793l-6.5065,-5.442719l-6.50296,-5.438789l0,6.047478c-1.594341,0 -3.446178,0 -4.066761,0c-2.958889,0.121723 -6.610577,-3.25156 -10.49543,-7.602768c-1.447838,-1.52523 -2.909607,-3.202259 -4.457439,-4.71841c1.547832,-1.517078 3.007511,-3.194201 4.457439,-4.71839c3.884853,-4.34318 7.536541,-7.724491 10.491341,-7.600731l4.07085,-0.003029l0,6.05542l6.50296,-5.440701l6.5065,-5.44272l-6.5065,-5.45185l-6.50296,-5.44381l0,6.05348l-4.068771,0c-6.04287,0.12375 -10.558617,5.324019 -14.510838,9.55148c-3.923,4.459789 -7.449041,7.820009 -9.49453,7.60071l-11.666401,0l0,9.663141l11.670601,0c2.042669,-0.218304 5.570789,3.141937 9.493809,7.60075c3.950119,4.23045 8.464489,9.428787 14.509369,9.55254l4.066761,0l0,6.05542l0,0l0,0z" id="svg_3" transform="rotate(90 37.5 34.6429)" stroke="#cccccc"/>
  <rect stroke="#cccccc" id="svg_7" height="14.499999" width="49.999998" y="30.25" x="87.071364" stroke-linejoin="round" stroke-dasharray="null" stroke-width="5" fill="#ffffff"/>
 </g>
</svg>
